# xmcd
#
# Track frame offsets:
#	150
#	51970
#	93307
#	147190
#	155149
#
# Disc length: 2501 seconds
#
# Revision: 1
# Processed by: cddbd v1.5.2PL0 Copyright (c) Steve Scherf et al.
# Submitted via: audiograbber 1.83.01
#
DISCID=4009c305
DTITLE=Grateful Dead - 73-11-10 Winterland Arena, San Francisco CA
DYEAR=1900
DGENRE=
TTITLE0=Playing In The Band
TTITLE1=Uncle John's Band
TTITLE2=Morning Dew
TTITLE3=Uncle John's Band
TTITLE4=Playing In The Band
EXTD=
EXTT0=
EXTT1=
EXTT2=
EXTT3=
EXTT4=
PLAYORDER=
